<svg width="217" height="30" viewBox="0 0 217 30" fill="none" xmlns="http://www.w3.org/2000/svg">
<path d="M46.3537 20.1687V8.79373H54.0718C54.9509 8.79373 55.7127 8.91679 56.3573 9.16293C57.0137 9.39734 57.5236 9.7724 57.8869 10.2881C58.2502 10.7921 58.4319 11.4426 58.4319 12.2396C58.4319 12.7788 58.3381 13.2359 58.1506 13.6109C57.9631 13.986 57.6994 14.2907 57.3595 14.5251C57.0313 14.7596 56.6504 14.9412 56.2167 15.0702C55.783 15.1874 55.3201 15.2635 54.8278 15.2987L54.5817 15.1581C55.4021 15.1698 56.0761 15.2401 56.6035 15.369C57.1309 15.4862 57.5236 15.7089 57.7814 16.0371C58.051 16.3536 58.1858 16.8283 58.1858 17.4612V20.1687H55.8475V17.6194C55.8475 17.1857 55.7713 16.8517 55.6189 16.6173C55.4666 16.3712 55.1911 16.2012 54.7926 16.1074C54.4059 16.0137 53.8433 15.9668 53.1049 15.9668H48.692V20.1687H46.3537ZM48.692 14.1384H54.0718C54.7282 14.1384 55.2263 13.9801 55.5662 13.6637C55.9178 13.3472 56.0936 12.9194 56.0936 12.3803C56.0936 11.8645 55.9178 11.4719 55.5662 11.2023C55.2263 10.9328 54.7282 10.798 54.0718 10.798H48.692V14.1384ZM62.6544 17.6897V15.7382H70.1791V17.6897H62.6544ZM59.8238 20.1687L65.1685 8.79373H67.7001L73.0975 20.1687H70.5483L65.8717 9.91891H66.9969L62.3555 20.1687H59.8238ZM77.4896 20.1687L72.4614 8.79373H75.0459L79.3532 19.0611H78.5445L82.8343 8.79373H85.3835L80.4081 20.1687H77.4896ZM89.434 15.4218V18.2172H98.2069V20.1687H87.0957V8.79373H98.1894V10.7452H89.434V13.5758H96.6071V15.4218H89.434ZM112.141 17.848L111.402 18.1468V8.79373H113.741V20.1687H111.402L102.208 11.1847L102.946 10.8859V20.1687H100.608V8.79373H102.946L112.141 17.848ZM138.552 19.0083H137.445L143.985 8.79373H146.323V20.1687H143.985V11.9056L144.548 12.0638L139.326 20.1687H136.706L131.485 12.099L132.047 11.9407V20.1687H129.709V8.79373H132.047L138.552 19.0083ZM150.8 17.6897V15.7382H158.325V17.6897H150.8ZM147.969 20.1687L153.314 8.79373H155.846L161.243 20.1687H158.694L154.017 9.91891H155.142L150.501 20.1687H147.969ZM162.897 20.1687V8.79373H170.615C171.494 8.79373 172.256 8.91679 172.9 9.16293C173.557 9.39734 174.067 9.7724 174.43 10.2881C174.793 10.7921 174.975 11.4426 174.975 12.2396C174.975 12.7788 174.881 13.2359 174.694 13.6109C174.506 13.986 174.242 14.2907 173.903 14.5251C173.574 14.7596 173.193 14.9412 172.76 15.0702C172.326 15.1874 171.863 15.2635 171.371 15.2987L171.125 15.1581C171.945 15.1698 172.619 15.2401 173.147 15.369C173.674 15.4862 174.067 15.7089 174.324 16.0371C174.594 16.3536 174.729 16.8283 174.729 17.4612V20.1687H172.391V17.6194C172.391 17.1857 172.314 16.8517 172.162 16.6173C172.01 16.3712 171.734 16.2012 171.336 16.1074C170.949 16.0137 170.386 15.9668 169.648 15.9668H165.235V20.1687H162.897ZM165.235 14.1384H170.615C171.271 14.1384 171.769 13.9801 172.109 13.6637C172.461 13.3472 172.637 12.9194 172.637 12.3803C172.637 11.8645 172.461 11.4719 172.109 11.2023C171.769 10.9328 171.271 10.798 170.615 10.798H165.235V14.1384ZM182.292 14.6306L182.274 13.6461L189.939 20.1687H186.564L179.742 14.1911L185.808 8.79373H189.131L182.292 14.6306ZM177.422 8.79373H179.76V20.1687H177.422V8.79373ZM194.079 15.4218V18.2172H202.852V20.1687H191.741V8.79373H202.834V10.7452H194.079V13.5758H201.252V15.4218H194.079ZM204.251 8.79373H216.241V10.7452H204.251V8.79373ZM209.085 10.4991H211.424V20.1687H209.085V10.4991Z" fill="white"/>
<path d="M123.051 18.1644V20.1687H120.397V18.1644H123.051Z" fill="#FFB121"/>
<path fill-rule="evenodd" clip-rule="evenodd" d="M14.8909 0.0334104C13.6601 0.316413 13.0297 0.555493 12.2081 1.05088C11.2089 1.65334 10.4425 2.36002 9.7336 3.33241C9.53447 3.60554 9.3075 3.87115 9.22924 3.92265C9.09431 4.01141 9.09128 4.02491 9.17109 4.17999L9.25536 4.34356L8.87152 4.3473C8.00332 4.35562 6.46347 4.66343 5.31473 5.05839C2.75363 5.93887 0.895859 7.55995 0.26206 9.46742C0.115988 9.90711 -0.0541533 11.3156 0.0165102 11.5005C0.0752821 11.6543 0.193626 11.6056 0.630185 11.2483C0.860927 11.0594 1.18234 10.8351 1.34437 10.75L1.63903 10.5951L2.37631 10.8047C3.34398 11.0799 3.57456 11.1113 5.81006 11.2726L7.70614 11.4094L8.15408 11.7111C8.40048 11.8769 8.82647 12.232 9.10072 12.5001C9.42985 12.8217 9.60822 12.96 9.62537 12.9069C9.63967 12.8625 9.66225 12.6256 9.67557 12.3802C9.68895 12.135 9.71279 11.9213 9.72851 11.9055C9.74429 11.8897 10.7193 11.6055 11.8952 11.274C13.0712 10.9424 14.1031 10.6431 14.1884 10.6087C14.2736 10.5743 14.4097 10.4589 14.4908 10.3521C14.743 10.02 14.8072 10.0134 15.2029 10.2788C15.3961 10.4083 15.5688 10.4995 15.5868 10.4814C15.6047 10.4634 15.4994 10.243 15.3527 9.9918L15.086 9.53488L14.5811 9.33192C14.3034 9.2203 14.028 9.12918 13.969 9.12941C13.9101 9.12964 13.7305 9.09198 13.57 9.0457C12.8472 8.83722 9.26148 8.53659 7.43006 8.53091C5.92189 8.52626 5.27894 8.5835 4.23517 8.81535C3.01159 9.0871 2.11275 9.45553 1.29097 10.0221C1.04313 10.1929 0.827597 10.3199 0.811932 10.3041C0.762879 10.2549 1.18292 9.42275 1.51559 8.9102C2.33183 7.65267 3.94748 6.54765 5.85305 5.94357C7.31155 5.48126 8.25584 5.28352 9.45426 5.18942C10.5753 5.10145 10.6026 5.10427 10.7889 5.32727C10.9011 5.46162 10.8733 5.75898 10.7103 6.1679C10.6278 6.37482 10.5755 6.55936 10.594 6.57802C10.6125 6.59662 10.8249 6.49861 11.0659 6.36018C11.3638 6.18914 11.6397 5.96378 11.928 5.65609L12.352 5.20354L12.4831 5.32727C12.7906 5.61734 13.2576 5.62715 14.2906 5.3654C14.416 5.33359 14.4503 5.3612 14.5706 5.5907C14.9872 6.38522 16.1122 6.82491 17.3166 6.66386C17.5917 6.62711 17.9175 6.56171 18.0405 6.51859L18.264 6.44028L17.9781 6.406C17.8209 6.38711 17.4902 6.35525 17.2432 6.33515C16.7538 6.29536 16.7378 6.24788 17.1777 6.14068C17.632 6.02998 18.2 5.69795 18.5244 5.35351C18.6868 5.18103 18.8073 5.02745 18.7921 5.01223C18.777 4.99701 18.4976 5.1258 18.1713 5.29845C17.4346 5.68825 16.9775 5.81376 16.4219 5.77879C15.9719 5.75048 15.6419 5.58765 15.4555 5.30195C15.3225 5.09807 15.4244 4.99983 15.6292 5.13458C15.966 5.35621 16.4257 5.2241 16.6345 4.84561C16.6974 4.73158 16.8137 4.65229 17.0225 4.58098L17.3207 4.47924L17.3194 4.69105C17.3187 4.80754 17.2673 5.0155 17.2051 5.15313C17.0602 5.47374 17.0602 5.47362 17.2652 5.35202C17.5408 5.1885 17.7737 4.9152 17.9687 4.52655C18.1392 4.18659 18.1678 4.15955 18.4641 4.05867C19.1243 3.83383 19.7397 3.76797 20.8653 3.80173C21.447 3.81913 21.9873 3.85145 22.0659 3.87356C22.164 3.90112 22.1908 3.89503 22.1516 3.85415C22.0726 3.77182 21.1029 3.5185 20.5584 3.43794C19.9807 3.35251 18.7685 3.35239 18.2916 3.43777C17.6588 3.551 16.6524 3.82125 15.4912 4.18975C13.9934 4.66504 13.8548 4.7004 13.4887 4.70121C13.1355 4.70196 12.9185 4.59017 12.9185 4.40753C12.9185 4.23958 13.2069 3.84491 13.5796 3.50282C14.5507 2.6115 16.4945 2.18639 18.8804 2.3436C20.9668 2.48111 22.0274 2.7683 24.2195 3.78944C25.2567 4.2726 25.6677 4.39771 25.6677 4.23034C25.6677 4.12808 25.1225 3.62983 24.6044 3.25846C24.0028 2.82733 23.2928 2.42513 22.5094 2.07173C22.1554 1.912 21.7114 1.71191 21.5227 1.6271C21.2033 1.48339 21.1898 1.4699 21.3267 1.42999C21.4075 1.40645 21.7355 1.35501 22.0556 1.31562C22.3757 1.27624 22.6374 1.22755 22.6371 1.20745C22.6364 1.15239 21.2648 0.742899 20.6712 0.620545C18.9543 0.266634 16.8105 0.381178 15.2768 0.908773C15.0174 0.997997 14.8056 1.05472 14.8061 1.0348C14.8067 1.01488 14.961 0.822707 15.1491 0.607684C15.5705 0.126137 15.5926 -0.00896281 15.2482 0.000453394C15.1146 0.00412801 14.9538 0.0189416 14.8909 0.0334104ZM26.5824 5.50348C26.5824 5.56721 26.9896 6.08241 27.3983 6.53565C28.0572 7.26638 28.8331 8.4 29.2099 9.1824C29.56 9.90958 29.5299 9.96119 29.011 9.52369C27.6796 8.40109 27.2616 8.11246 26.2679 7.6293C25.4701 7.24129 24.7151 6.99032 23.9567 6.86085C23.4065 6.76692 22.293 6.73413 22.2964 6.81193C22.2975 6.83559 22.5096 7.01002 22.7678 7.19949C24.7338 8.64224 26.5317 10.7996 27.5525 12.9411C28.1971 14.2933 28.9264 16.8899 28.9264 17.8327V18.1472L28.5749 17.6685C26.9554 15.4636 24.2221 13.2004 22.7631 12.8562C22.5964 12.8168 22.4461 12.7985 22.4291 12.8155C22.4122 12.8326 22.6453 13.2844 22.9472 13.8195C23.8337 15.3911 24.6184 17.2681 24.9836 18.6904C25.1986 19.5279 25.2671 20.4225 25.2673 22.3943L25.2675 23.9242L25.8538 23.7333C26.6235 23.4826 27.3003 23.3951 28.128 23.4393C29.9388 23.5361 31.1611 24.0527 32.2909 25.1986C32.9734 25.8909 33.5215 26.7766 34.1568 28.2142C34.3654 28.6861 34.5506 29.0858 34.5684 29.1023C34.6129 29.1437 34.5439 28.1427 34.411 26.8191C34.0536 23.2609 33.2646 19.4899 32.2701 16.587C31.7458 15.0566 30.9303 13.1359 30.7373 12.9771C30.4735 12.76 30.7561 12.7375 31.1608 12.9435C31.7243 13.2303 32.6143 14.2594 33.1571 15.252C33.2986 15.5107 33.432 15.7232 33.4536 15.7241C33.4955 15.7259 33.4801 15.5827 33.3545 14.8042C33.0945 13.1916 31.9984 10.3971 31.1787 9.25699C30.0679 7.71204 28.6034 6.40721 27.1696 5.6852C26.6838 5.4405 26.5824 5.40915 26.5824 5.50348ZM18.6928 13.659C18.6928 13.6939 18.7726 14.0246 18.8702 14.3939C19.1124 15.311 19.1513 16.03 18.9878 16.5667C18.6432 17.6981 17.7529 18.5351 15.878 19.4903C15.0416 19.9164 14.1311 20.4527 13.6902 20.779C12.8473 21.4027 11.9614 22.7283 11.55 23.9815C11.3944 24.4556 11.2155 25.4604 11.2759 25.5211C11.2914 25.5366 11.414 25.3737 11.5483 25.159C12.2137 24.0959 13.5498 23.0453 16.5489 21.2269C18.4878 20.0513 19.8095 19.343 20.0641 19.343C20.1935 19.343 20.2356 19.4534 20.2725 19.8877C20.3176 20.42 20.1662 21.1283 19.8858 21.697C19.6871 22.0998 19.5444 22.2863 19.0688 22.7648C18.102 23.7377 17.031 24.3533 15.0767 25.0598C14.4808 25.2752 14.0047 25.4785 14.0047 25.5175C14.0047 25.7141 15.3459 25.8535 16.8632 25.8146C17.8459 25.7894 18.1335 25.7612 18.6429 25.6401C19.8388 25.3558 20.7694 24.8696 21.563 24.1145C22.4349 23.285 22.9222 22.4214 23.154 21.2951C23.2577 20.7914 23.2732 20.5694 23.2483 19.9458C23.2125 19.0459 23.0795 18.4863 22.7299 17.764C22.1282 16.5212 20.7832 15.0391 19.3535 14.0435C18.694 13.5843 18.6928 13.5836 18.6928 13.659ZM12.605 14.4925C12.541 15.2267 12.4198 15.7222 12.1837 16.2138C11.7479 17.1211 11.053 17.8412 9.78242 18.7021L9.13325 19.142L9.35364 19.1817C9.68815 19.2421 10.5008 19.2346 10.9175 19.1672C11.1219 19.1342 11.5357 19.0246 11.837 18.9236L12.385 18.7401L11.8703 19.3717C10.6072 20.9218 9.82656 22.4277 9.51149 23.9217C9.45661 24.1821 9.42899 24.4126 9.45015 24.4339C9.50995 24.4939 9.74904 24.2423 10.1686 23.6779C10.3798 23.3936 10.7779 22.858 11.0533 22.4876C12.5834 20.4289 14.294 18.82 16.1363 17.7066C16.5021 17.4855 16.8025 17.29 16.8038 17.2721C16.8105 17.1786 15.6423 17.0281 14.9767 17.0368C14.324 17.0453 13.4624 17.1723 13.1188 17.3106C13.0052 17.3564 13.0051 17.3557 13.1158 17.1871C13.4944 16.6105 13.5188 16.5324 13.5188 15.898C13.5188 15.3546 13.5032 15.264 13.3611 14.9793C13.2744 14.8057 13.0778 14.522 12.9241 14.349L12.6449 14.0344L12.605 14.4925Z" fill="#FFB121"/>
</svg>
